<svg width="24" height="24" viewBox="0 0 24 24" fill="none" xmlns="http://www.w3.org/2000/svg">
  <g stroke="#00A86B" stroke-width="2" stroke-linecap="round" stroke-linejoin="round">
    <path d="M17.94 17.94C16.12 19.23 14.1 20 12 20C7 20 2.73 16.11 1 12C1.76 10.13 2.96 8.46 4.44 7.19M9.88 9.88C9.37 10.39 9 11.14 9 12C9 13.66 10.34 15 12 15C12.86 15 13.61 14.63 14.12 14.12M9.88 9.88L14.12 14.12M9.88 9.88L2 2M14.12 14.12L22 22M17.94 6.06C19.06 7.1 20.07 8.43 21 10C20.23 11.52 19.1 13.01 17.94 14.06" />
  </g>
</svg>
